Coordinates
version=1
nRows=19
nColumns=33
inDegrees=yes

Units are S.I. units (second, meters, Newtons, ...)
Angles are in degrees.

endheader
time	ground_thorax_rot_x	ground_thorax_rot_y	ground_thorax_rot_z	ground_thorax_tx	ground_thorax_ty	ground_thorax_tz	clav_prot_r	clav_elev_r	scapula_abduction_r	scapula_elevation_r	scapula_upward_rot_r	scapula_winging_r	shoulder_elv_r	plane_of_elev_r	axial_rot_r	elbow_flexion_r	pro_sup_r	wrist_flex_r	wrist_dev_r	clav_prot_l	clav_elev_l	scapula_abduction_l	scapula_elevation_l	scapula_upward_rot_l	scapula_winging_l	shoulder_elv_l	plane_of_elev_l	axial_rot_l	elbow_flexion_l	pro_sup_l	wrist_flex_l	wrist_dev_l
      7.50000000	     38.09182928	      7.60643920	      9.57185451	   -126.09124064	    805.56079312	     -3.87481493	     17.39168372	     40.61779072	     45.00000000	     45.00000000	    -37.73922464	   2077.09730783	   -827.54502966	    144.06588909	    179.99999979	   1090.99520974	     30.21955528	     19.50964350	     13.48219337	      9.14482287	    -45.00000000	    -45.00000000	     45.00000000	    -18.86609966	   -626.84166283	   -649.15322712	     25.02287967	    -12.53181289	   1086.93561744	     24.74597946	     12.11385931	    -21.45715441
      7.51000000	     38.07244524	      7.20595419	      9.40195413	   -122.22974282	    804.21610388	     -3.79750790	     17.47820180	     40.71066259	     45.00000000	     45.00000000	    -36.96158030	   2077.70638689	   -827.51184380	    144.35320174	    179.99999979	   1090.93340460	     30.31359097	     19.40551580	     13.50075942	      8.87360961	    -45.00000000	    -45.00000000	     45.00000000	    -17.84456079	   -627.42186525	   -649.40505320	     24.95927117	    -11.86635879	   1086.61489141	     25.58529485	     12.41993894	    -21.35930760
      7.52000000	     37.98373931	      6.91138102	      9.37656810	   -118.41971219	    802.85156556	     -3.73256295	     17.45328106	     40.80128080	     45.00000000	     45.00000000	    -36.35417776	   2078.03431876	   -827.69828995	    144.36304841	    179.99999979	   1090.89433408	     30.45327698	     19.32877311	     13.59724873	      8.67047841	    -45.00000000	    -45.00000000	     45.00000000	    -17.17795246	   -627.85078166	   -649.60650121	     25.04148956	    -11.08117083	   1086.39081684	     26.44255667	     12.54741324	    -21.26617609
      7.53000000	     37.87487253	      6.70812123	      9.53241809	   -114.67504969	    801.48063388	     -3.66702582	     17.43258206	     40.89945057	     45.00000000	     45.00000000	    -35.98119446	   2078.39214923	   -827.81771368	    144.35753617	    179.99999979	   1090.87244189	     30.60094197	     19.25907154	     13.70201907	      8.58952115	    -45.00000000	    -45.00000000	     45.00000000	    -16.72054043	   -628.21164606	   -649.81904559	     25.15795677	    -10.20293001	   1086.09428293	     27.27910293	     12.59417161	    -21.15180332
      7.54000000	     37.76990766	      6.78147348	      9.87977127	   -111.01473046	    800.12182129	     -3.58557929	     17.27742046	     40.94969679	     45.00000000	     45.00000000	    -35.95988971	   2078.33970025	   -828.14417950	    143.96511584	    179.99999979	   1090.60711277	     30.79814481	     19.17383459	     14.01134530	      8.48481812	    -45.00000000	    -45.00000000	     45.00000000	    -17.14699874	   -628.61843416	   -650.05575720	     25.54524147	     -9.45162316	   1085.73191743	     27.97670789	     12.41724698	    -20.94857569
      7.55000000	     37.65837116	      6.34281120	      9.79177658	   -107.44372562	    798.78964367	     -3.47881231	     17.35505049	     41.01582062	     45.00000000	     45.00000000	    -35.48575271	   2079.06550934	   -828.05117332	    144.26285656	    179.99999979	   1090.68060730	     30.90110707	     19.09474524	     13.95800722	      8.34770851	    -45.00000000	    -45.00000000	     45.00000000	    -16.20327779	   -629.08355875	   -650.19292089	     25.53964219	     -8.22031393	   1085.27929250	     28.88007409	     12.71165137	    -20.86304759
      7.56000000	     37.56997525	      5.80390249	      9.63696455	   -103.98998226	    797.50677453	     -3.34241421	     17.40425989	     41.06649698	     45.00000000	     45.00000000	    -34.88978811	   2079.46358343	   -828.12839869	    144.22937696	    179.99999979	   1090.76417129	     30.95938892	     19.02052133	     13.96124436	      8.05869802	    -45.00000000	    -45.00000000	     45.00000000	    -15.12924716	   -629.42029520	   -650.38573046	     25.63221993	     -6.83304941	   1084.90148203	     30.00970724	     12.88267610	    -20.81098996
      7.57000000	     37.46927270	      6.07124574	     10.21380773	   -100.67872440	    796.29165442	     -3.17976334	     17.32252607	     41.00218475	     45.00000000	     45.00000000	    -35.35310874	   2079.30424594	   -828.36715953	    143.73265701	    179.99999979	   1090.56257581	     31.11732313	     18.93164507	     14.29382157	      8.03138182	    -45.00000000	    -45.00000000	     45.00000000	    -16.15670156	   -629.75525076	   -650.62474017	     26.11229577	     -5.94629437	   1084.59157601	     30.73999663	     12.62475648	    -20.60350069
      7.58000000	     37.35697030	      5.66151616	     10.20124019	    -97.53368202	    795.15510877	     -2.99563089	     17.37466800	     41.04017161	     45.00000000	     45.00000000	    -35.17085319	   2079.85223230	   -828.24003000	    143.74073834	    179.99999979	   1090.63974380	     31.18100233	     18.86179163	     14.26715351	      8.05002281	    -45.00000000	    -45.00000000	     45.00000000	    -15.30446700	   -630.07679935	   -650.78914974	     26.20273530	     -4.59618469	   1084.03190363	     31.60747354	     12.78637795	    -20.47962941
      7.59000000	     37.25193008	      5.36101514	     10.16290857	    -94.55971083	    794.10175906	     -2.79862829	     17.37349020	     41.08817636	     45.00000000	     45.00000000	    -34.96580821	   2080.23338435	   -828.27687793	    143.72188739	    179.99999979	   1090.60854820	     31.22622179	     18.78481933	     14.35875818	      7.89424146	    -45.00000000	    -45.00000000	     45.00000000	    -14.83165223	   -630.45022421	   -650.90239438	     26.38451122	     -3.51337601	   1083.61511255	     32.51708097	     12.80944523	    -20.35106902
      7.60000000	     37.15733538	      5.16001730	     10.27895214	    -91.75215315	    793.12985101	     -2.59649708	     17.36100559	     41.05482081	     45.00000000	     45.00000000	    -34.90773092	   2080.46074993	   -828.36610869	    143.56869740	    179.99999979	   1090.64297714	     31.26793657	     18.71963684	     14.48031606	      7.75098876	    -45.00000000	    -45.00000000	     45.00000000	    -14.88380961	   -630.78692477	   -650.95551739	     26.53158154	     -2.69508878	   1083.42255753	     33.30455309	     12.75678441	    -20.21843279
      7.61000000	     37.04875761	      4.95331328	     10.34679194	    -89.09228039	    792.23358858	     -2.39757852	     17.35774513	     41.02463677	     45.00000000	     45.00000000	    -34.82603100	   2080.77685611	   -828.44764954	    143.51769902	    179.99999979	   1090.66123080	     31.31227349	     18.65992018	     14.57272352	      7.64240027	    -45.00000000	    -45.00000000	     45.00000000	    -14.84564506	   -631.13739636	   -650.95765215	     26.63330741	     -2.01049785	   1083.24192640	     34.01803262	     12.71628255	    -20.08508966
      7.62000000	     37.00859869	      4.76397289	     10.35298366	    -86.56278413	    791.40668582	     -2.21040468	     17.35837492	     41.03864288	     45.00000000	     45.00000000	    -34.63230476	   2081.03905123	   -828.47819657	    143.44438147	    179.99999979	   1090.58104540	     31.36647288	     18.59101915	     14.65917162	      7.57785059	    -45.00000000	    -45.00000000	     45.00000000	    -14.60549241	   -631.49240494	   -651.11196242	     26.71751068	     -1.34791776	   1082.92845113	     34.69220680	     12.68393617	    -19.94379426
      7.63000000	     36.97312619	      4.57426066	     10.34471752	    -84.12451726	    790.63783725	     -2.04207088	     17.35800346	     41.09355171	     45.00000000	     45.00000000	    -34.34269857	   2081.32092112	   -828.56937689	    143.45142665	    179.99999979	   1090.43065311	     31.44246761	     18.52354602	     14.75853978	      7.47900795	    -45.00000000	    -45.00000000	     45.00000000	    -14.37626694	   -631.84125233	   -651.25346204	     26.80643826	     -0.57778114	   1082.58277417	     35.33737470	     12.65902457	    -19.79667483
      7.64000000	     36.91959437	      4.48913158	     10.37170449	    -81.77850953	    789.92450009	     -1.90059436	     17.32921239	     41.13038395	     45.00000000	     45.00000000	    -34.04503723	   2081.56944110	   -828.74952185	    143.51472041	    179.99999979	   1090.34069797	     31.54505556	     18.48148313	     14.86619493	      7.39935789	    -45.00000000	    -45.00000000	     45.00000000	    -14.33269746	   -632.20874511	   -651.31644113	     26.94680307	      0.35368948	   1082.27470397	     35.94294377	     12.61620918	    -19.63465872
      7.65000000	     36.87400012	      4.31790882	     10.44544502	    -79.52966305	    789.26576680	     -1.79188578	     17.32447413	     41.22467561	     45.00000000	     45.00000000	    -33.62699366	   2081.76467781	   -829.03709865	    143.49182031	    179.99999979	   1090.14937729	     31.69095492	     18.43725861	     14.96604990	      7.34478823	    -45.00000000	    -45.00000000	     45.00000000	    -14.24307622	   -632.44603445	   -651.36504288	     27.08921602	      1.47131715	   1081.89646579	     36.54309748	     12.57435027	    -19.48735208
      7.66000000	     36.83078393	      4.14100798	     10.33337463	    -77.39790083	    788.66485752	     -1.71998324	     17.27349591	     41.40362345	     45.00000000	     45.00000000	    -32.98129052	   2081.97946573	   -829.37735417	    143.54761069	    179.99999979	   1089.80909199	     31.88660223	     18.37985846	     15.03645648	      7.30189997	    -45.00000000	    -45.00000000	     45.00000000	    -13.74354167	   -632.73097376	   -651.49545618	     27.21012067	      2.89290483	   1081.42168505	     37.21530543	     12.54890455	    -19.35418598
      7.67000000	     36.79935820	      4.12881452	     10.33739268	    -75.38465704	    788.12372087	     -1.68296453	     17.15053160	     41.51009657	     45.00000000	     45.00000000	    -32.27403864	   2082.05522248	   -829.88328959	    143.73408921	    179.99999979	   1089.59935423	     32.08690194	     18.35822946	     15.14842123	      7.22901089	    -45.00000000	    -45.00000000	     45.00000000	    -13.92834163	   -633.07190869	   -651.45707629	     27.43218809	      4.13518835	   1081.10349905	     37.82763776	     12.45863081	    -19.19156770
      7.68000000	     36.83697139	      3.98437183	     10.26208633	    -73.52157239	    787.65451482	     -1.67238189	     17.13872982	     41.71865013	     45.00000000	     45.00000000	    -31.46797767	   2082.18901333	   -830.25627571	    143.81764407	    179.99999979	   1089.18274050	     32.34787714	     18.30413126	     15.20125398	      7.21123869	    -45.00000000	    -45.00000000	     45.00000000	    -13.60248801	   -633.33448335	   -651.55231725	     27.52381415	      5.55233804	   1080.64474966	     38.43504674	     12.40574127	    -19.05500678
